<!-- icon666.com - MILLIONS vector ICONS FREE --><svg viewBox="0 0 64 64" xmlns="http://www.w3.org/2000/svg"><g id="Layer_86" data-name="Layer 86"><path d="m43 21a4.49 4.49 0 0 0 6.36 0l3.54-3.54a4.5 4.5 0 1 0 -6.36-6.36l-3.54 3.58a4.51 4.51 0 0 0 0 6.32zm2.12-4.24 3.54-3.54a1.55 1.55 0 0 1 2.12 0 1.5 1.5 0 0 1 0 2.12l-3.58 3.58a1.5 1.5 0 0 1 -2.12-2.12z" fill="#000000"></path><path d="m49.32 43a4.51 4.51 0 0 0 -6.32 0 4.51 4.51 0 0 0 0 6.36l3.54 3.54a4.5 4.5 0 1 0 6.36-6.36zm1.42 7.78a1.55 1.55 0 0 1 -2.12 0l-3.54-3.58a1.5 1.5 0 0 1 2.12-2.12l3.54 3.54a1.5 1.5 0 0 1 0 2.12z" fill="#000000"></path><path d="m21 43a4.51 4.51 0 0 0 -6.36 0l-3.5 3.5a4.5 4.5 0 1 0 6.36 6.36l3.5-3.54a4.51 4.51 0 0 0 0-6.32zm-2.08 4.2-3.54 3.54a1.55 1.55 0 0 1 -2.12 0 1.5 1.5 0 0 1 0-2.12l3.54-3.54a1.49 1.49 0 0 1 1.06-.44 1.5 1.5 0 0 1 1.06 2.56z" fill="#000000"></path><g fill="#7ac943"><path d="m32 2.5a4.51 4.51 0 0 0 -4.5 4.5v5a4.5 4.5 0 0 0 9 0v-5a4.51 4.51 0 0 0 -4.5-4.5zm1.5 9.5a1.5 1.5 0 0 1 -3 0v-5a1.5 1.5 0 0 1 3 0z" fill="#7ac943" style="fill: rgb(255, 214, 21);"></path><path d="m57 27.5h-5a4.5 4.5 0 0 0 0 9h5a4.5 4.5 0 0 0 0-9zm0 6h-5a1.5 1.5 0 0 1 0-3h5a1.5 1.5 0 0 1 0 3z" fill="#7ac943" style="fill: rgb(255, 214, 21);"></path><path d="m32 47.5a4.51 4.51 0 0 0 -4.5 4.5v5a4.5 4.5 0 0 0 9 0v-5a4.51 4.51 0 0 0 -4.5-4.5zm1.5 9.5a1.5 1.5 0 0 1 -3 0v-5a1.5 1.5 0 0 1 3 0z" fill="#7ac943" style="fill: rgb(255, 214, 21);"></path><path d="m12 27.5h-5a4.5 4.5 0 0 0 0 9h5a4.5 4.5 0 0 0 0-9zm0 6h-5a1.5 1.5 0 0 1 0-3h5a1.5 1.5 0 0 1 0 3z" fill="#7ac943" style="fill: rgb(255, 214, 21);"></path></g></g></svg>